<?xml version="1.0" encoding="UTF-8" standalone="no"?>
<svg
   viewBox="0 0 128 128"
   version="1.1"
   id="svg1"
   sodipodi:docname="embeddedc-plain.svg"
   inkscape:version="1.4.2 (ebf0e940d0, 2025-05-08)"
   xmlns:inkscape="http://www.inkscape.org/namespaces/inkscape"
   xmlns:sodipodi="http://sodipodi.sourceforge.net/DTD/sodipodi-0.dtd"
   xmlns="http://www.w3.org/2000/svg"
   xmlns:svg="http://www.w3.org/2000/svg">
  <defs
     id="defs1" />
  <sodipodi:namedview
     id="namedview1"
     pagecolor="#ffffff"
     bordercolor="#000000"
     borderopacity="0.25"
     inkscape:showpageshadow="2"
     inkscape:pageopacity="0.0"
     inkscape:pagecheckerboard="0"
     inkscape:deskcolor="#d1d1d1"
     inkscape:zoom="7.1015625"
     inkscape:cx="64.070407"
     inkscape:cy="64"
     inkscape:window-width="2316"
     inkscape:window-height="1158"
     inkscape:window-x="0"
     inkscape:window-y="0"
     inkscape:window-maximized="1"
     inkscape:current-layer="svg1" />
  <path
     d="M25.6 0c-.9 0-1.6.9-1.6 2v11.2h-6.2c-2.1 0-3.7 1.3-3.7 3V24h-12c-1.1 0-2 .7-2 1.6v4.8c0 .9.9 1.6 2 1.6h12v10h-12c-1.1 0-2 .7-2 1.6v4.8c0 .9.9 1.6 2 1.6h12v10h-12c-1.1 0-2 .7-2 1.6v4.8c0 .9.9 1.6 2 1.6h12v10h-12c-1.1 0-2 .7-2 1.6v4.8c0 .9.9 1.6 2 1.6h12v10h-12c-1.1 0-2 .7-2 1.6v4.8c0 .9.9 1.6 2 1.6h12v7c0 1.7 1.7 3 3.8 3h6.3v12c0 1.1.7 2 1.6 2h4.8c.9 0 1.6-.9 1.6-2v-12h10v12c0 1.1.7 2 1.6 2h4.8c.9 0 1.6-.9 1.6-2v-12h10v12c0 1.1.7 2 1.6 2h4.8c.9 0 1.6-.9 1.6-2v-12h10v12c0 1.1.7 2 1.6 2h4.8c.9 0 1.6-.9 1.6-2v-12h10v12c0 1.1.7 2 1.6 2h4.8c.9 0 1.6-.9 1.6-2v-12h6.3c2.1 0 3.8-1.3 3.8-3v-7h12c1.1 0 2-.7 2-1.6v-4.8c0-.9-.9-1.6-2-1.6h-12V86h12c1.1 0 2-.7 2-1.6v-4.8c0-.9-.9-1.6-2-1.6h-12V68h12c1.1 0 2-.7 2-1.6v-4.8c0-.9-.9-1.6-2-1.6h-12V50h12c1.1 0 2-.7 2-1.6v-4.8c0-.9-.9-1.6-2-1.6h-12V32h12c1.1 0 2-.7 2-1.6v-4.8c0-.9-.9-1.6-2-1.6h-12v-7.8c0-1.7-1.7-3-3.7-3h-6.2V2c0-1.1-.7-2-1.6-2H98c-.9 0-1.6.9-1.6 2v11.2h-10V2c0-1.1-.7-2-1.6-2H80c-.9 0-1.6.9-1.6 2v11.2h-10V2c0-1.1-.7-2-1.6-2H62c-.9 0-1.6.9-1.6 2v11.2h-10V2c0-1.1-.7-2-1.6-2H44c-.9 0-1.6.9-1.6 2v11.2h-10V2c0-1.1-.7-2-1.6-2zM23 20a3 3 0 013 3 3 3 0 01-3 3 3 3 0 01-3-3 3 3 0 013-3zm41 4.5c14.7 0 27.5 8.1 34.3 20l-13 7.5C81.1 44.5 73.1 39.5 64 39.5c-13.5 0-24.5 11-24.5 24.5s11 24.5 24.5 24.5c9.1 0 17.1-5 21.3-12.4l12.9 7.6c-6.8 11.8-19.6 19.8-34.2 19.8-21.8 0-39.5-17.7-39.5-39.5S42.2 24.5 64 24.5z"
     fill="#000"
     id="path1"
     style="fill:#cdd6f4;fill-opacity:1" />
</svg>
