<?xml version="1.0" encoding="UTF-8" standalone="no"?>
<!-- Generator: Adobe Illustrator 21.0.0, SVG Export Plug-In . SVG Version: 6.00 Build 0)  -->

<svg
   version="1.1"
   id="Layer_1"
   x="0px"
   y="0px"
   viewBox="0 0 23.8 24"
   style="enable-background:new 0 0 23.8 24;"
   xml:space="preserve"
   sodipodi:docname="lattes_icon.svg"
   inkscape:version="1.4.2 (ebf0e940d0, 2025-05-08)"
   xmlns:inkscape="http://www.inkscape.org/namespaces/inkscape"
   xmlns:sodipodi="http://sodipodi.sourceforge.net/DTD/sodipodi-0.dtd"
   xmlns="http://www.w3.org/2000/svg"
   xmlns:svg="http://www.w3.org/2000/svg"
   xmlns:rdf="http://www.w3.org/1999/02/22-rdf-syntax-ns#"
   xmlns:cc="http://creativecommons.org/ns#"
   xmlns:dc="http://purl.org/dc/elements/1.1/"><defs
   id="defs1" /><sodipodi:namedview
   id="namedview1"
   pagecolor="#ffffff"
   bordercolor="#000000"
   borderopacity="0.25"
   inkscape:showpageshadow="2"
   inkscape:pageopacity="0.0"
   inkscape:pagecheckerboard="0"
   inkscape:deskcolor="#d1d1d1"
   inkscape:zoom="40.916667"
   inkscape:cx="7.8696538"
   inkscape:cy="12.305499"
   inkscape:window-width="1932"
   inkscape:window-height="1298"
   inkscape:window-x="0"
   inkscape:window-y="0"
   inkscape:window-maximized="1"
   inkscape:current-layer="Layer_1" />
<style
   type="text/css"
   id="style1">
	.st0{fill:#5E5E5E;}
</style>
<title
   id="title1">lattes-new</title>
<path
   class="st0"
   d="M4.9,21.9c-2.6-5.3-4.1-8.5-4.1-8.5c0-0.1,0.2-0.1,1.7,0.2c2.7,0.5,4.2,0.7,6.6,0.7c3.2,0,5.8-0.5,7.8-1.5  c1.1-0.5,1.7-1,2.2-1.7c0.7-0.8,0.9-1.3,0.9-2.3c0-0.9-0.1-1.3-0.6-2.4C19.2,6,19.1,5.5,19,5.3C19,5,19,5,19.2,5  c0.4-0.1,2.6,2.1,3.4,3.3c1.4,2.2,1.5,4.6,0.3,6.8c-0.7,1.4-1.5,2.4-2.9,3.5c-2.2,1.8-4.8,3.1-8.4,4.1c-1.9,0.6-5,1.2-5.7,1.2  C6,24,5.7,23.6,4.9,21.9L4.9,21.9z M6.6,22.9c0-0.1-0.4-0.7-0.7-1.5c-0.8-1.6-1-2.2-0.9-2.2c0.1,0,0.1-0.1,0.1-0.2  c0-0.1,0-0.2,0-0.2c0.3-0.1-0.1-1.1-0.6-1.6c-0.2-0.2-0.3-0.4-0.3-0.7c0-0.4-0.3-1.3-0.7-1.9c-0.2-0.3-0.2-0.4-0.1-0.5  c0.1,0-0.2-0.1-0.6-0.2C2.4,14,2,13.9,2,13.8c-0.1,0-0.1-0.1-0.1,0C1.9,14,6.5,23,6.6,23C6.6,23,6.7,23,6.6,22.9L6.6,22.9z   M5.6,13.4C3.1,13.1,1,12.8,1,12.8c-0.1,0-0.5-1.4-0.7-2.4c-0.1-0.3-0.1-1-0.2-1.6C-0.2,6,0.4,4.1,2,2.4c2.7-2.9,8.5-3.2,15-0.9  c1.1,0.4,1.6,0.7,1.4,0.9c-0.2,0.1-1.2,0.1-3,0c-2.8-0.2-5,0.2-6.1,1.1C7.5,4.9,7.8,8,10,12.5c0.2,0.5,0.5,1,0.5,1.1  c0.1,0.2,0,0.4-0.2,0.4C10.2,14,8.1,13.7,5.6,13.4z M9.7,13.4c0,0-0.1,0-0.2,0c-0.1,0-0.1,0,0.1,0C9.7,13.5,9.7,13.4,9.7,13.4z   M9.2,13.3c-0.2-0.1-8-1.1-8-1.1c0,0-0.1,0.1,0,0.1c0.1,0.1,7.6,1,7.9,1C9.2,13.4,9.2,13.4,9.2,13.3L9.2,13.3z M6.1,12.5  c-0.1,0-0.2,0-0.2,0c-0.1,0,0,0,0.1,0C6.1,12.6,6.2,12.5,6.1,12.5L6.1,12.5z M4,12.2c-1-0.1-1.9-0.3-2.1-0.3  c-0.3-0.1-0.4-0.1-0.5-0.3l-0.1-0.3l0.1,0.3c0,0.2,0.1,0.3,0.1,0.4c0,0.1,0.8,0.2,1.9,0.3C5.8,12.6,6.2,12.6,4,12.2z M14,11  c-2-0.4-3.8-1.6-4.4-3c-0.3-0.7-0.3-1.6,0-2.1c0.3-0.5,1-1,1.6-1.3c1-0.4,2.8-0.2,4.2,0.4c1.3,0.6,2.4,1.5,2.8,2.5  c0.5,1.2,0.1,2.5-1,3.1C16.4,10.9,14.9,11.1,14,11L14,11z M13,10c-0.4-0.2-0.7-0.3-0.7-0.2c-0.1,0,1.1,0.5,1.3,0.5  C13.6,10.3,13.3,10.2,13,10z M11.9,9.2c-0.3-0.2-0.7-0.6-1-0.8C10.7,8.1,10.5,8,10.5,8c0,0.2,1.7,1.6,1.9,1.6  C12.4,9.6,12.2,9.4,11.9,9.2L11.9,9.2z"
   id="path1"
   style="fill:#cdd6f4;fill-opacity:1" />
<metadata
   id="metadata1"><rdf:RDF><cc:Work
       rdf:about=""><dc:title>lattes-new</dc:title></cc:Work></rdf:RDF></metadata></svg>
