<?xml version="1.0" encoding="UTF-8" standalone="no"?>
<!-- Generator: Adobe Illustrator 26.0.1, SVG Export Plug-In . SVG Version: 6.00 Build 0)  -->

<svg
   version="1.1"
   id="Capa_1"
   x="0px"
   y="0px"
   viewBox="0 0 20.293 20.29225"
   xml:space="preserve"
   width="432.91733"
   height="432.90134"
   sodipodi:docname="linkedin.svg"
   inkscape:version="1.4.2 (ebf0e940d0, 2025-05-08)"
   xmlns:inkscape="http://www.inkscape.org/namespaces/inkscape"
   xmlns:sodipodi="http://sodipodi.sourceforge.net/DTD/sodipodi-0.dtd"
   xmlns="http://www.w3.org/2000/svg"
   xmlns:svg="http://www.w3.org/2000/svg"><defs
   id="defs1" /><sodipodi:namedview
   id="namedview1"
   pagecolor="#ffffff"
   bordercolor="#000000"
   borderopacity="0.25"
   inkscape:showpageshadow="2"
   inkscape:pageopacity="0.0"
   inkscape:pagecheckerboard="0"
   inkscape:deskcolor="#d1d1d1"
   inkscape:zoom="0.95507812"
   inkscape:cx="256.52352"
   inkscape:cy="217.78323"
   inkscape:window-width="2000"
   inkscape:window-height="1213"
   inkscape:window-x="0"
   inkscape:window-y="0"
   inkscape:window-maximized="1"
   inkscape:current-layer="Capa_1" />
<g
   id="g1"
   style="fill:#cdd6f4;fill-opacity:1"
   transform="translate(0,-1.7818635)">
	
	<path
   id="Path_2520"
   d="m 17.291,19.073 h -3.007 v -4.709 c 0,-1.123 -0.02,-2.568 -1.564,-2.568 -1.566,0 -1.806,1.223 -1.806,2.487 v 4.79 H 7.908 V 9.389 h 2.887 v 1.323 h 0.04 c 0.589,-1.006 1.683,-1.607 2.848,-1.564 3.048,0 3.609,2.005 3.609,4.612 z M 4.515,8.065 C 3.551,8.065 2.77,7.284 2.77,6.32 c 0,-0.964 0.781,-1.745 1.745,-1.745 0.964,0 1.745,0.781 1.745,1.745 0,0.964 -0.781,1.745 -1.745,1.745 v 0 M 6.018,19.073 H 3.008 V 9.389 h 3.01 z M 18.79,1.783 H 1.497 C 0.68,1.774 0.01,2.429 0,3.246 V 20.61 c 0.01,0.818 0.68,1.473 1.497,1.464 H 18.79 c 0.819,0.01 1.492,-0.645 1.503,-1.464 V 3.245 C 20.281,2.426 19.608,1.771 18.79,1.782"
   style="fill:#cdd6f4;fill-opacity:1" />
	
</g>















</svg>
