<?xml version="1.0" encoding="UTF-8" standalone="no"?>
<!-- Uploaded to: SVG Repo, www.svgrepo.com, Generator: SVG Repo Mixer Tools -->

<svg
   width="800px"
   height="800px"
   viewBox="0 0 32 32"
   version="1.1"
   id="svg1"
   sodipodi:docname="openscad_icon.svg"
   inkscape:version="1.4.2 (ebf0e940d0, 2025-05-08)"
   xmlns:inkscape="http://www.inkscape.org/namespaces/inkscape"
   xmlns:sodipodi="http://sodipodi.sourceforge.net/DTD/sodipodi-0.dtd"
   xmlns="http://www.w3.org/2000/svg"
   xmlns:svg="http://www.w3.org/2000/svg"
   xmlns:rdf="http://www.w3.org/1999/02/22-rdf-syntax-ns#"
   xmlns:cc="http://creativecommons.org/ns#"
   xmlns:dc="http://purl.org/dc/elements/1.1/">
  <defs
     id="defs1" />
  <sodipodi:namedview
     id="namedview1"
     pagecolor="#ffffff"
     bordercolor="#000000"
     borderopacity="0.25"
     inkscape:showpageshadow="2"
     inkscape:pageopacity="0.0"
     inkscape:pagecheckerboard="0"
     inkscape:deskcolor="#d1d1d1"
     inkscape:zoom="0.61125"
     inkscape:cx="400"
     inkscape:cy="399.182"
     inkscape:window-width="1703"
     inkscape:window-height="863"
     inkscape:window-x="0"
     inkscape:window-y="0"
     inkscape:window-maximized="1"
     inkscape:current-layer="svg1" />
  <title
     id="title1">file_type_openscad</title>
  <path
     d="M 26.779272,5.438915 A 3.6267109,3.6267109 0 0 0 25.443345,5.0600212 0.61842443,0.61842443 0 0 0 25.094937,5.1416793 L 23.217888,6.0453629 A 12.058188,12.058188 0 0 0 4.395139,15.103974 l -1.9597957,0.938525 v 0 l -0.2580398,0.128475 -0.00653,0.0076 a 3.2663262,3.2663262 0 0 0 -1.41323051,2.964735 8.7635532,8.7635532 0 0 0 1.24882541,4.344214 c 1.3195958,2.286428 3.3752037,3.854265 5.1172443,3.854265 v 0 a 2.5314028,2.5314028 0 0 0 1.274956,-0.361474 v -0.01633 l 1.5917897,-0.77412 A 12.052744,12.052744 0 0 0 28.466874,16.569466 l 1.430651,-0.812227 0.02178,-0.01524 a 3.1759578,3.1759578 0 0 0 0.952678,-1.15628 l 0.02504,-0.06968 A 4.7437944,4.7437944 0 0 0 31.243252,12.624833 9.7597827,9.7597827 0 0 0 29.808246,8.2174698 8.5164012,8.5164012 0 0 0 26.779272,5.438915 m -6.21473,4.2679996 C 21.626098,9.1516391 22.21186,8.429781 22.215126,7.6730821 v 0 c 0,0.7621428 -0.58685,1.4720244 -1.651672,2.0283886 M 9.087761,25.552952 c -0.019598,0.04791 -0.019598,0.04791 -0.030486,0.07077 a 2.1775508,2.1775508 0 0 1 -0.8623102,0.973365 h -0.00871 a 2.1067804,2.1067804 0 0 1 -1.0648223,0.271105 c -1.5994111,0 -3.5134782,-1.454604 -4.7633924,-3.620178 A 8.2583614,8.2583614 0 0 1 1.1603873,19.143331 2.8972313,2.8972313 0 0 1 2.3580402,16.53027 l 0.2547735,-0.123032 0.045729,-0.01633 a 0.35820711,0.35820711 0 0 1 0.047906,-0.01742 0.37562751,0.37562751 0 0 1 0.045728,-0.01524 l 0.051173,-0.01633 0.043551,-0.01198 0.054439,-0.01415 0.043551,-0.0087 0.057705,-0.01198 0.043551,-0.0076 0.058794,-0.0087 h 0.047906 l 0.059883,-0.0065 H 3.697234 l 0.068593,0.0065 h 0.040285 l 0.074037,0.01089 H 3.91499 l 0.082747,0.01415 0.039196,0.0087 0.077303,0.01742 0.038107,0.0087 0.080569,0.02069 c 0.081658,0.01851 0.5596305,0.197069 0.5596305,0.197069 a 7.8751125,7.8751125 0 0 1 3.4122221,3.309877 c 0.1382745,0.238442 0.2645724,0.48015 0.3788939,0.722947 0.086013,0.181825 0.1654938,0.362562 0.2384418,0.544387 0.048995,0.121943 0.094723,0.242797 0.1371857,0.36474 0.079481,0.226465 0.1480734,0.452931 0.2057785,0.677218 0.021776,0.08275 0.042462,0.165494 0.060971,0.248241 a 0.29832446,0.29832446 0 0 0 0.014154,0.05988 5.4569423,5.4569423 0 0 1 -0.00653,2.656612 c 0,0 -0.1252092,0.350586 -0.1458959,0.39958 m 2.4769644,-0.579228 -1.548239,0.745811 -0.4213561,0.202512 -0.3266326,0.155695 c 0.0098,-0.01633 0.019598,-0.03266 0.028308,-0.04899 l 0.019598,-0.03375 c 0.032663,-0.05771 0.064238,-0.118676 0.094724,-0.180736 h 0.00871 l 0.00871,-0.01742 c 0.030486,-0.06641 0.059883,-0.13283 0.087102,-0.202512 0.01742,-0.04355 0.032663,-0.08928 0.048995,-0.135008 l 0.0098,-0.03266 A 7.460289,7.460289 0 0 0 8.554261,19.675742 8.1331522,8.1331522 0 0 0 4.7860094,16.125246 l -0.1589612,-0.05879 -0.1513398,-0.049 -0.095812,-0.02722 -0.067504,-0.01851 -0.054439,-0.01415 -0.1088775,-0.02504 -0.063149,-0.01307 -0.1088776,-0.0196 -0.1088775,-0.01633 -0.07077,-0.0098 h -0.038107 l 0.634756,-0.304857 0.4126459,-0.199246 1.0680887,-0.512813 a 2.2036814,2.2036814 0 0 1 0.8122264,-0.148073 c 1.6004998,0 3.5178342,1.456781 4.7688362,3.624533 a 8.3400196,8.3400196 0 0 1 1.197653,4.006694 3.0485711,3.0485711 0 0 1 -1.071355,2.638102 M 14.214804,10.395021 A 7.5833207,7.5833207 0 0 1 12.270251,9.7221574 2.0327437,2.0327437 0 0 1 12.080805,9.6132799 4.5271281,4.5271281 0 0 1 11.571258,9.2768483 2.0806498,2.0806498 0 0 1 10.618579,7.6774372 c 0,-0.7621427 0.58685,-1.4829121 1.651672,-2.0392763 a 9.1849093,9.1849093 0 0 1 4.155856,-0.8960621 9.1849093,9.1849093 0 0 1 4.155856,0.8960621 4.2309812,4.2309812 0 0 1 1.041958,0.7414561 2.540113,2.540113 0 0 1 0.267839,0.314656 l 0.201423,0.3527633 v 0.010888 c 0.02178,0.047906 0.04029,0.095812 0.05662,0.1437184 v 0 c 0.01524,0.046817 0.02831,0.094723 0.0392,0.1426296 v 0.019598 a 0.33752037,0.33752037 0 0 0 0.0098,0.054439 c 0,0.018509 0.0087,0.048995 0.01198,0.074037 a 0.44639791,0.44639791 0 0 0 -0.01089,-0.075125 0.59447137,0.59447137 0 0 0 0.01089,0.075125 v 0.028308 a 1.3489927,1.3489927 0 0 1 0.0076,0.1480734 c 0,0.7621428 -0.589027,1.4742019 -1.652761,2.0294774 a 9.1979746,9.1979746 0 0 1 -4.156944,0.8797309 v 0 l -0.02069,0.01524 h -0.442043 a 1.759461,1.759461 0 0 1 -0.227554,-0.0098 H 15.59646 c -0.108877,-0.0065 -0.209045,-0.01524 -0.312478,-0.02613 h -0.02286 c -0.114321,-0.01198 -0.227554,-0.02613 -0.340786,-0.04137 z m 5.366574,10.364053 a 8.914893,8.914893 0 0 1 0.96901,-2.40946 c 1.197653,-2.08065 3.039861,-3.484082 4.572857,-3.484082 a 2.0066131,2.0066131 0 0 1 1.023449,0.262395 2.186261,2.186261 0 0 1 0.948323,1.216162 3.3686711,3.3686711 0 0 1 0.108878,0.398492 l 0.06859,0.420268 a 4.6741128,4.6741128 0 0 1 0.03049,0.477972 7.9349951,7.9349951 0 0 1 -1.14648,3.944633 c -1.197653,2.081739 -3.04095,3.484081 -4.572857,3.484081 a 2.016412,2.016412 0 0 1 -1.023449,-0.261306 2.0871824,2.0871824 0 0 1 -0.838357,-0.943968 3.0790568,3.0790568 0 0 1 -0.207956,-0.607537 4.3975638,4.3975638 0 0 1 -0.108877,-0.961388 6.0056851,6.0056851 0 0 1 0.07839,-1.026715 z m 10.951992,-6.375869 -0.02504,0.06968 a 2.7654895,2.7654895 0 0 1 -0.805694,0.962477 l -1.205274,0.683751 -0.02395,0.01415 V 16.000036 A 12.07343,12.07343 0 0 0 23.604403,6.3219119 h 0.0098 L 25.337734,5.492265 v 0 a 0.41264588,0.41264588 0 0 1 0.120854,-0.014154 3.1334956,3.1334956 0 0 1 1.171522,0.3451418 8.0493165,8.0493165 0 0 1 2.867835,2.646813 9.5812235,9.5812235 0 0 1 1.340282,4.1547672 4.3485689,4.3485689 0 0 1 -0.326633,1.759461"
     style="fill:#cdd6f4;fill-opacity:1;stroke-width:1.08878"
     id="path1" />
  <metadata
     id="metadata1">
    <rdf:RDF>
      <cc:Work
         rdf:about="">
        <dc:title>file_type_openscad</dc:title>
      </cc:Work>
    </rdf:RDF>
  </metadata>
</svg>
